<svg width="220" height="220" viewBox="0 0 220 220" fill="none" xmlns="http://www.w3.org/2000/svg">
  <defs>
    <filter id="shadow" x="-30%" y="-20%" width="160%" height="160%" color-interpolation-filters="sRGB"><feDropShadow dx="0" dy="8" stdDeviation="5" flood-color="#050814" flood-opacity="0.32"/></filter>
    <radialGradient id="gravityGlow" cx="0" cy="0" r="1" gradientUnits="userSpaceOnUse" gradientTransform="translate(110 98) rotate(90) scale(88)"><stop stop-color="#edf2ff"/><stop offset="0.32" stop-color="#8aa7ff"/><stop offset="0.72" stop-color="#283047" stop-opacity="0.42"/><stop offset="1" stop-color="#283047" stop-opacity="0"/></radialGradient>
    <linearGradient id="metal" x1="65" y1="55" x2="155" y2="178" gradientUnits="userSpaceOnUse"><stop stop-color="#48546f"/><stop offset="0.48" stop-color="#20283c"/><stop offset="1" stop-color="#0b101b"/></linearGradient>
    <linearGradient id="core" x1="88" y1="55" x2="137" y2="145" gradientUnits="userSpaceOnUse"><stop stop-color="#edf2ff"/><stop offset="0.44" stop-color="#8aa7ff"/><stop offset="1" stop-color="#18264f"/></linearGradient>
  </defs>
  <ellipse cx="110" cy="190" rx="64" ry="14" fill="#050814" opacity="0.3"/>
  <circle cx="110" cy="98" r="84" fill="url(#gravityGlow)" opacity="0.92"/>
  <circle cx="110" cy="98" r="63" stroke="#8aa7ff" stroke-width="3" stroke-dasharray="13 10" opacity="0.68"/>
  <path d="M45 58C76 88 143 88 175 58M43 139C78 109 143 109 177 139" stroke="#dfe8ff" stroke-width="4" stroke-linecap="round" opacity="0.75"/>
  <g filter="url(#shadow)">
    <path d="M70 150H150L166 186H54L70 150Z" fill="url(#metal)" stroke="#070b13" stroke-width="5" stroke-linejoin="round"/>
    <path d="M49 184H171L160 199H60L49 184Z" fill="#050814"/>
    <circle cx="110" cy="91" r="46" fill="#111622" stroke="#8aa7ff" stroke-width="5"/>
    <circle cx="110" cy="91" r="22" fill="url(#core)" stroke="#dfe8ff" stroke-width="4"/>
    <ellipse cx="110" cy="91" rx="67" ry="22" stroke="#dfe8ff" stroke-width="5" transform="rotate(-18 110 91)"/>
    <ellipse cx="110" cy="91" rx="63" ry="19" stroke="#8aa7ff" stroke-width="3" transform="rotate(24 110 91)" opacity="0.82"/>
    <path d="M71 147L45 174M149 147L175 174" stroke="#111622" stroke-width="8" stroke-linecap="round"/>
    <path d="M45 174L36 164M175 174L184 164" stroke="#8aa7ff" stroke-width="5" stroke-linecap="round"/>
    <path d="M80 129C96 139 124 139 140 129" stroke="#dfe8ff" stroke-width="4" stroke-linecap="round"/>
    <path d="M83 166H137" stroke="#8aa7ff" stroke-width="4" stroke-linecap="round" opacity="0.8"/>
    <path d="M110 69V93L126 103" stroke="#ffffff" stroke-width="4" stroke-linecap="round"/>
  </g>
</svg>
