<svg width="220" height="220" viewBox="0 0 220 220" fill="none" xmlns="http://www.w3.org/2000/svg">
  <defs>
    <filter id="softShadow" x="-30%" y="-20%" width="160%" height="160%" color-interpolation-filters="sRGB">
      <feDropShadow dx="0" dy="8" stdDeviation="5" flood-color="#050507" flood-opacity="0.28"/>
    </filter>
    <radialGradient id="pulse" cx="0" cy="0" r="1" gradientUnits="userSpaceOnUse" gradientTransform="translate(162 92) rotate(90) scale(58)">
      <stop stop-color="#fff8cf"/>
      <stop offset="0.24" stop-color="#f3d68f"/>
      <stop offset="0.58" stop-color="#b98638" stop-opacity="0.55"/>
      <stop offset="1" stop-color="#b98638" stop-opacity="0"/>
    </radialGradient>
    <linearGradient id="coat" x1="66" y1="52" x2="123" y2="172" gradientUnits="userSpaceOnUse">
      <stop stop-color="#343740"/>
      <stop offset="0.52" stop-color="#1d1f26"/>
      <stop offset="1" stop-color="#0f1015"/>
    </linearGradient>
    <linearGradient id="coatEdge" x1="65" y1="64" x2="142" y2="145" gradientUnits="userSpaceOnUse">
      <stop stop-color="#f1d79b"/>
      <stop offset="1" stop-color="#79542b"/>
    </linearGradient>
    <linearGradient id="skin" x1="84" y1="56" x2="115" y2="100" gradientUnits="userSpaceOnUse">
      <stop stop-color="#f4d2b9"/>
      <stop offset="1" stop-color="#c58c72"/>
    </linearGradient>
    <linearGradient id="metalGold" x1="132" y1="72" x2="180" y2="122" gradientUnits="userSpaceOnUse">
      <stop stop-color="#fff1bb"/>
      <stop offset="0.35" stop-color="#d6ac61"/>
      <stop offset="1" stop-color="#6e4b27"/>
    </linearGradient>
    <linearGradient id="cap" x1="66" y1="34" x2="126" y2="76" gradientUnits="userSpaceOnUse">
      <stop stop-color="#2f333c"/>
      <stop offset="1" stop-color="#121419"/>
    </linearGradient>
  </defs>

  <ellipse cx="103" cy="190" rx="62" ry="14" fill="#08090c" opacity="0.28"/>

  <g opacity="0.95">
    <path d="M143 83C157 64 187 70 205 91C187 112 157 116 143 99V83Z" fill="url(#pulse)"/>
    <circle cx="154" cy="92" r="12" fill="#fff6c8"/>
    <circle cx="154" cy="92" r="25" stroke="#e3bd72" stroke-width="3" opacity="0.7"/>
    <circle cx="154" cy="92" r="36" stroke="#d0a25a" stroke-width="2" stroke-dasharray="12 9" opacity="0.58"/>
    <path d="M172 48C182 64 185 118 173 137" stroke="#f5dea5" stroke-width="3" stroke-linecap="round" opacity="0.78"/>
    <path d="M198 70C179 75 161 84 145 99" stroke="#fff3bd" stroke-width="3" stroke-linecap="round"/>
    <path d="M200 116C178 110 160 102 144 96" stroke="#fff3bd" stroke-width="3" stroke-linecap="round"/>
    <path d="M145 61L153 49M166 132L173 146M185 92H209M157 41L159 30M194 52L204 43M198 135L209 145" stroke="#f8e7b1" stroke-width="3" stroke-linecap="round"/>
  </g>

  <g filter="url(#softShadow)">
    <path d="M67 93L45 133L66 141L86 105L67 93Z" fill="#181a20" stroke="url(#coatEdge)" stroke-width="4" stroke-linejoin="round"/>
    <path d="M84 83C101 67 127 73 137 94L154 96L151 119L131 116C111 135 82 125 78 102L84 83Z" fill="url(#coat)" stroke="url(#coatEdge)" stroke-width="4" stroke-linejoin="round"/>
    <path d="M78 97L122 108" stroke="#d6aa63" stroke-width="4" stroke-linecap="round"/>
    <path d="M100 84L94 133M116 89L109 137" stroke="#6f512e" stroke-width="3" opacity="0.9"/>
    <path d="M91 112L78 177H58L66 122L91 112Z" fill="#14161b" stroke="#090a0d" stroke-width="6" stroke-linejoin="round"/>
    <path d="M108 115L143 162L127 179L96 135L108 115Z" fill="#14161b" stroke="#090a0d" stroke-width="6" stroke-linejoin="round"/>
    <path d="M58 176H82L76 193H48C50 185 53 180 58 176Z" fill="#0c0d11"/>
    <path d="M123 176L145 158L157 174L133 194C127 190 124 184 123 176Z" fill="#0c0d11"/>

    <path d="M132 94L154 86L169 101L151 118L130 115L132 94Z" fill="#17191f" stroke="#d5ad66" stroke-width="4" stroke-linejoin="round"/>
    <path d="M154 86L174 77L187 95L169 101L154 86Z" fill="url(#metalGold)" stroke="#4c351d" stroke-width="4" stroke-linejoin="round"/>
    <circle cx="181" cy="93" r="15" fill="#22252d" stroke="#d8b673" stroke-width="4"/>
    <circle cx="181" cy="93" r="9" fill="#1a1c22" stroke="#5d4020" stroke-width="2"/>
    <path d="M181 84V94L189 99" stroke="#f7e5b0" stroke-width="3" stroke-linecap="round"/>
    <path d="M166 86L177 99M171 80L184 95" stroke="#ffecc0" stroke-width="2" stroke-linecap="round" opacity="0.75"/>

    <path d="M80 64C79 42 96 30 115 34C132 38 140 56 135 74C123 86 94 84 80 64Z" fill="url(#cap)" stroke="#090a0d" stroke-width="5"/>
    <path d="M86 69C98 80 119 80 132 72L126 98C112 109 91 106 82 92L86 69Z" fill="url(#skin)" stroke="#0f1014" stroke-width="4"/>
    <path d="M77 58C94 45 119 44 140 53L135 73C117 78 95 77 77 69V58Z" fill="#1a1d24" stroke="#0c0d11" stroke-width="5" stroke-linejoin="round"/>
    <path d="M82 57C97 62 120 62 139 53" stroke="#d8b673" stroke-width="4" stroke-linecap="round"/>
    <circle cx="118" cy="58" r="7" fill="#d7ac62" stroke="#4a3420" stroke-width="3"/>
    <path d="M113 53L122 63M122 53L113 63" stroke="#fff0b5" stroke-width="1.6" stroke-linecap="round" opacity="0.72"/>
    <path d="M89 84H131" stroke="#0c0e13" stroke-width="10" stroke-linecap="round"/>
    <path d="M91 84C100 89 119 89 129 83" stroke="#303540" stroke-width="3" stroke-linecap="round" opacity="0.8"/>

    <path d="M69 95L54 76" stroke="#d5ad66" stroke-width="5" stroke-linecap="round"/>
    <circle cx="51" cy="74" r="15" fill="#20232a" stroke="#d8b673" stroke-width="4"/>
    <circle cx="51" cy="74" r="9" fill="#15171d" stroke="#6c4d29" stroke-width="2"/>
    <path d="M51 65V75L59 80" stroke="#f7e5b0" stroke-width="3" stroke-linecap="round"/>
    <path d="M60 93L50 104M70 97L58 116" stroke="#0c0d11" stroke-width="5" stroke-linecap="round" opacity="0.35"/>

    <path d="M86 101C98 109 113 109 128 101" stroke="#eed08c" stroke-width="3" stroke-linecap="round" opacity="0.85"/>
    <path d="M71 91L79 98M73 107L82 112M122 90L132 96" stroke="#f1d79b" stroke-width="3" stroke-linecap="round"/>
  </g>
</svg>
